<svg width="500" height="500" viewBox="0 0 500 500" fill="none" xmlns="http://www.w3.org/2000/svg">
<rect width="500" height="500" fill="white"/>
<g filter="url(#filter0_i_43_1275)">
<ellipse cx="405.572" cy="310.445" rx="34.8232" ry="36.3465" transform="rotate(-158.901 405.572 310.445)" fill="white"/>
</g>
<path d="M377.282 299.53C383.679 282.949 401.58 274.77 417.036 280.734C432.493 286.698 440.26 304.78 433.863 321.361C427.465 337.941 409.565 346.121 394.109 340.157C378.652 334.193 370.885 316.11 377.282 299.53Z" stroke="url(#paint0_linear_43_1275)" stroke-width="9"/>
<g filter="url(#filter1_d_43_1275)">
<path d="M411.546 273.775C403.745 312.436 382.622 347.227 351.775 372.221C320.929 397.216 282.268 410.866 242.38 410.846C202.491 410.827 163.844 397.139 133.022 372.115C102.2 347.09 81.1115 312.278 73.3487 273.61C65.586 234.941 71.6297 194.809 90.45 160.051C109.27 125.293 139.703 98.0596 176.562 82.9914C213.422 67.9232 254.427 65.9523 292.592 77.4147C330.757 88.877 363.72 113.063 385.865 145.852L385.44 146.133C363.361 113.441 330.496 89.3262 292.444 77.8978C254.392 66.4695 213.508 68.4345 176.758 83.458C140.007 98.4815 109.665 125.634 90.9005 160.289C72.136 194.944 66.1102 234.958 73.8499 273.511C81.5897 312.065 102.616 346.774 133.346 371.724C164.077 396.674 202.61 410.322 242.38 410.341C282.15 410.361 320.696 396.751 351.451 371.831C382.206 346.911 403.267 312.223 411.045 273.676L411.546 273.775Z" fill="#0CC1E0"/>
</g>
<g filter="url(#filter2_d_43_1275)">
<path d="M420.546 280.775C412.745 319.436 391.622 354.227 360.775 379.221C329.929 404.216 291.268 417.866 251.38 417.846C211.491 417.827 172.844 404.139 142.022 379.115C111.2 354.09 90.1115 319.278 82.3487 280.61C74.586 241.941 80.6297 201.809 99.45 167.051C118.27 132.293 148.703 105.06 185.562 89.9914C222.422 74.9232 263.427 72.9523 301.592 84.4147C339.757 95.877 372.72 120.063 394.865 152.852L393.933 153.467C371.932 120.891 339.183 96.8625 301.266 85.4747C263.35 74.0869 222.611 76.0449 185.991 91.0151C149.371 105.985 119.136 133.042 100.438 167.574C81.7404 202.106 75.736 241.977 83.4483 280.394C91.1606 318.811 112.112 353.397 142.734 378.258C173.355 403.12 211.751 416.719 251.38 416.738C291.009 416.758 329.419 403.196 360.064 378.365C390.71 353.533 411.696 318.968 419.446 280.558L420.546 280.775Z" fill="#0CC1E0"/>
</g>
<g filter="url(#filter3_d_43_1275)">
<path d="M415.546 273.775C407.745 312.436 386.622 347.227 355.775 372.221C324.929 397.216 286.268 410.866 246.38 410.846C206.491 410.827 167.844 397.139 137.022 372.115C106.2 347.09 85.1115 312.278 77.3487 273.61C69.586 234.941 75.6297 194.809 94.45 160.051C113.27 125.293 143.703 98.0596 180.562 82.9914C217.422 67.9232 258.427 65.9523 296.592 77.4147C334.757 88.877 367.72 113.063 389.865 145.852L388.676 146.637C366.715 114.12 334.025 90.1338 296.177 78.7665C258.328 67.3993 217.663 69.3538 181.109 84.297C144.555 99.2403 114.375 126.248 95.7105 160.717C77.0462 195.187 71.0527 234.987 78.751 273.335C86.4494 311.683 107.363 346.206 137.93 371.023C168.496 395.839 206.823 409.414 246.38 409.433C285.938 409.453 324.278 395.916 354.869 371.129C385.459 346.342 406.407 311.839 414.144 273.499L415.546 273.775Z" fill="#0CC1E0"/>
</g>
<g filter="url(#filter4_d_43_1275)">
<path d="M420.546 286.775C412.745 325.436 391.622 360.227 360.775 385.221C329.929 410.216 291.268 423.866 251.38 423.846C211.491 423.827 172.844 410.139 142.022 385.115C111.2 360.09 90.1115 325.278 82.3487 286.61C74.586 247.941 80.6297 207.809 99.45 173.051C118.27 138.293 148.703 111.06 185.562 95.9914C222.422 80.9232 263.427 78.9523 301.592 90.4147C339.757 101.877 372.72 126.063 394.865 158.852L393.805 159.551C371.824 127.005 339.105 102.997 301.222 91.6194C263.339 80.2418 222.636 82.1981 186.049 97.1549C149.462 112.112 119.255 139.144 100.573 173.645C81.8921 208.146 75.8931 247.982 83.5984 286.365C91.3038 324.747 112.237 359.302 142.831 384.142C173.425 408.981 211.787 422.568 251.38 422.587C290.974 422.606 329.349 409.057 359.967 384.248C390.586 359.438 411.553 324.904 419.296 286.529L420.546 286.775Z" fill="#0CC1E0"/>
</g>
<g filter="url(#filter5_d_43_1275)">
<path d="M409.77 284.885C402.192 322.428 381.673 356.214 351.71 380.486C321.746 404.757 284.192 418.013 245.446 417.994C206.699 417.975 169.158 404.683 139.218 380.382C109.279 356.081 88.7935 322.275 81.253 284.724C73.7124 247.174 79.5831 208.201 97.8648 174.448C116.146 140.695 145.708 114.249 181.512 99.6159C217.317 84.9832 257.148 83.0694 294.221 94.2004C331.294 105.331 363.313 128.819 384.824 160.66L383.791 161.341C362.44 129.736 330.658 106.423 293.86 95.3741C257.062 84.3256 217.526 86.2253 181.987 100.749C146.448 115.274 117.106 141.524 98.9595 175.027C80.8134 208.53 74.9862 247.213 82.4708 284.486C89.9555 321.758 110.289 355.313 140.006 379.434C169.724 403.555 206.987 416.749 245.446 416.767C283.905 416.786 321.181 403.629 350.923 379.537C380.664 355.445 401.031 321.91 408.552 284.645L409.77 284.885Z" fill="#0CC1E0"/>
</g>
<g filter="url(#filter6_d_43_1275)">
<path d="M395.563 341.872C375.631 375.905 344.355 401.952 307.064 415.576C269.773 429.199 228.775 429.556 191.054 416.586C153.334 403.615 121.225 378.119 100.199 344.443C79.1734 310.767 70.5311 270.993 75.7452 231.899C80.9592 192.805 99.7068 156.81 128.794 130.047C157.881 103.283 195.507 87.4076 235.262 85.1246C275.017 82.8416 314.44 94.2926 346.815 117.526C379.191 140.76 402.514 174.339 412.811 212.542L410.995 213.011C400.809 175.225 377.741 142.013 345.719 119.033C313.698 96.0528 274.705 84.7269 235.384 86.985C196.064 89.2431 158.848 104.945 130.079 131.417C101.31 157.888 82.7669 193.49 77.6098 232.156C72.4528 270.823 81.0006 310.162 101.797 343.471C122.593 376.78 154.351 401.997 191.66 414.826C228.968 427.655 269.519 427.302 306.402 413.827C343.286 400.352 374.22 374.589 393.934 340.928L395.563 341.872Z" fill="#0CC1E0"/>
</g>
<g filter="url(#filter7_d_43_1275)">
<path d="M386.524 354.577C362.022 385.482 327.406 406.892 288.574 415.157C249.743 423.423 209.099 418.034 173.567 399.907C138.035 381.781 109.814 352.039 93.7129 315.75C77.6115 279.46 74.6257 238.868 85.2643 200.89C95.9029 162.912 119.508 129.898 152.057 107.472C184.606 85.0472 224.085 74.5984 263.768 77.9065C303.45 81.2146 340.881 98.0749 369.683 125.615C398.484 153.154 416.874 189.669 421.719 228.938L420.312 229.096C415.507 190.151 397.269 153.937 368.705 126.624C340.14 99.3117 303.018 82.5904 263.662 79.3095C224.307 76.0287 185.153 86.3913 152.872 108.632C120.592 130.872 97.1813 163.614 86.6304 201.279C76.0795 238.944 79.0407 279.202 95.0094 315.192C110.978 351.183 138.966 380.679 174.205 398.656C209.444 416.633 249.753 421.978 288.265 413.781C326.776 405.583 361.107 384.35 385.407 353.699L386.524 354.577Z" fill="#0CC1E0"/>
</g>
<g filter="url(#filter8_d_43_1275)">
<path d="M397.988 336.936C376.669 370.118 344.346 394.853 306.525 406.927C268.704 419 227.725 417.666 190.572 403.15C153.419 388.635 122.389 361.837 102.77 327.321C83.1511 292.806 76.1568 252.71 82.9789 213.865C89.801 175.019 110.017 139.828 140.183 114.287C170.349 88.7463 208.599 74.4361 248.414 73.7948C288.229 73.1535 327.147 86.2209 358.536 110.77C389.925 135.32 411.844 169.832 420.557 208.428L418.708 208.824C410.091 170.654 388.414 136.521 357.37 112.242C326.326 87.9623 287.837 75.0387 248.46 75.673C209.083 76.3072 171.255 90.4599 141.421 115.72C111.586 140.979 91.5926 175.783 84.8456 214.201C78.0986 252.619 85.0159 292.274 104.419 326.409C123.822 360.544 154.51 387.048 191.255 401.403C227.999 415.759 268.526 417.079 305.931 405.138C343.336 393.197 375.304 368.734 396.388 335.918L397.988 336.936Z" fill="#0CC1E0"/>
</g>
<g filter="url(#filter9_d_43_1275)">
<path d="M197.673 123C202.159 123.264 201.524 129.905 201.524 131.669C201.524 133.761 203.733 140.689 198.636 140.847C197.591 140.88 190.698 142.831 190.025 141.584C188.588 138.92 188.466 136.324 190.934 133.708C192.186 132.382 195.748 129.798 195.748 128.354C195.748 127.386 196.23 124.912 197.673 124.53" stroke="#865141" stroke-width="4" stroke-linecap="round"/>
</g>
<g filter="url(#filter10_d_43_1275)">
<path d="M171.859 181.691C172.389 179.221 176.196 178.543 178.398 177.275C180.196 176.24 182.54 174.49 184.524 173.981C186.162 173.561 189.145 170.558 188.994 172.859C188.919 174.006 187.395 174.207 186.925 175.242C186.332 176.547 186.181 178.201 184.897 179.168C181.266 181.901 179.507 188 173.721 188C168.398 188 171.762 177.275 176.329 177.275" stroke="#865141" stroke-width="4" stroke-linecap="round"/>
</g>
<g filter="url(#filter11_d_43_1275)">
<path d="M155.672 172C153.452 171.711 152.983 159.257 157.138 159.017C159.08 158.904 160.791 156.572 162.635 155.537C164.882 154.277 167.491 150.239 169.598 149.852C169.696 149.834 169.788 149.809 169.874 149.779C171.079 146.11 171.645 149.153 169.874 149.779C169.785 150.049 169.693 150.355 169.598 150.7C168.59 154.378 168.12 157.2 166.097 160.12C163.049 164.517 161.907 172 155.672 172Z" stroke="#865141" stroke-width="4" stroke-linecap="round" shape-rendering="crispEdges"/>
</g>
<g filter="url(#filter12_d_43_1275)">
<path d="M230.415 399.848C227.092 398.891 203.551 393.801 205.119 390.372C206.579 387.176 208.496 385.232 212.144 383.14C214.807 381.614 221.856 380.363 223.671 378.666C226.244 376.26 227.82 374.046 229.453 371.076C232.093 366.273 231.593 367.254 226.156 364.586C222.618 362.85 220.806 361.611 216.463 362.952C213.255 363.942 206.603 365.875 204.986 368.415C200.645 375.237 195.818 378.897 186.195 381.635C172.386 385.564 180.187 374.684 182.65 370.202C183.517 368.625 184.384 367.048 185.251 365.471C186.478 363.239 189.525 362.927 190.745 361.026C191.941 359.161 195.87 354.177 193.994 352.341C192.126 350.513 188.34 348.278 185.273 347.395C183.875 346.992 174.921 347.321 175.239 344.992C175.588 342.438 178.245 339.37 179.558 336.981C180.793 334.735 177.716 337.457 173.734 335.243C166.723 331.345 172.363 325.097 174.988 320.322C176.142 318.223 174.189 312.348 171.907 310.667C170.443 309.589 166.72 305.214 167.38 303.64C167.822 302.587 170.065 296.487 169.451 295.712C168.935 295.062 168.564 288.26 164.869 291.714C163.369 293.116 164.32 293.713 161.594 293.511C159.731 293.372 159.977 296.189 158.634 296.738C156.055 297.791 150.397 298.465 149.366 300.34C148.853 301.273 141.832 303.301 140.037 303.438C135.468 303.787 134.885 306.87 133.243 310.249C130.813 315.247 141.472 320.251 137.957 326.646C134.02 333.807 124.761 325.247 122.823 321.496C121.859 319.63 125.401 316.095 124.081 314.43C122.772 312.78 123.075 308.777 120.756 307.993C116.155 306.438 117.075 304.312 114.204 301.722C113.169 300.789 107.209 294.797 107.363 293.664C107.955 289.329 100.453 283.791 97.2902 279.925C95.2587 277.442 93.7431 275.142 96.595 273.636C100.151 271.759 104.698 273.47 108.009 272.296C125.203 266.196 88.1528 247.855 114.726 245.431C117.642 245.165 127.311 246.121 128.78 243.45C129.401 242.32 126.073 241.081 125.544 239.778C124.902 238.196 125.147 236.179 124.111 234.677C120.199 229.004 106.391 234.8 100.741 232.027C97.8492 230.608 98.9037 223.066 99.9873 220.911C101.843 217.22 103.997 216.29 109.063 216.888C111.905 217.223 113.096 215.918 116.512 216.902C118.536 217.485 120.56 218.068 122.584 218.65C132.752 221.579 132.119 215.593 139.413 209.615C141.982 207.509 154.652 202.226 145.19 201.11C140.563 200.564 136.689 199.697 132.189 198.401C120.78 195.116 130.57 190.248 132.383 186.95C135.45 181.37 121.483 181.382 128.411 174.907C129.647 173.751 135.176 173.202 136.494 171.146C138.533 167.967 135.046 166.671 133.939 164.078C132.618 160.982 127.488 159.309 125.942 155.504C123.901 150.478 126.584 147.286 127.51 141.708C128.029 138.578 129.193 134.552 134.021 134.024C137.751 133.616 146.139 126.346 144.894 125.343" stroke="#865141" stroke-width="4" stroke-linecap="round"/>
</g>
<path d="M332.694 311.226C321.239 318.439 309.035 321.181 296.083 319.451C282.735 317.669 271.85 313.054 263.429 305.607C255.007 298.159 249.198 288.774 246.003 277.452C242.957 266.014 242.334 253.556 244.134 240.075C245.847 227.256 249.862 215.82 256.182 205.768C262.502 195.717 270.975 188.172 281.602 183.135C292.379 177.983 304.904 176.36 319.178 178.266C328.429 179.502 336.446 181.918 343.23 185.514C350.146 189.128 355.334 193.588 358.796 198.893C362.275 204.065 363.608 209.691 362.796 215.771C361.896 222.511 359.106 227.788 354.427 231.602C349.88 235.434 344.566 236.944 338.487 236.132C336.505 235.867 335.333 235.576 334.972 235.259C334.61 234.941 334.5 234.254 334.642 233.197C334.695 232.8 335.373 231.748 336.678 230.039C338.114 228.347 339.379 226.431 340.472 224.29C341.715 222.035 342.557 219.255 342.998 215.951C343.898 209.211 341.988 203.374 337.266 198.438C332.677 193.521 326.153 190.497 317.695 189.368C307.254 187.973 298.333 189.808 290.93 194.873C283.528 199.937 277.782 206.703 273.692 215.169C269.602 223.636 266.93 232.56 265.677 241.944C264.212 252.913 264.522 263.178 266.608 272.738C268.844 282.184 272.781 289.974 278.418 296.107C284.056 302.241 291.104 305.873 299.562 307.002C312.646 308.75 324.281 305.73 334.468 297.944L335.819 287.834C336.631 281.754 336.337 277.41 334.936 274.802C333.536 272.194 330.422 269.827 325.594 267.703L321.193 265.904L324.472 259.482L366.103 265.042L368.256 268.558L365.202 271.782C361.316 275.702 358.385 280.019 356.411 284.732C354.436 289.446 352.919 295.767 351.86 303.697L348.788 326.693C343.599 365.548 325.277 382.875 293.823 378.673C286.026 377.632 279.603 375.362 274.555 371.863C269.49 368.496 265.86 364.446 263.668 359.714C261.589 355.132 260.877 350.396 261.53 345.506C262.412 338.898 265.418 333.516 270.547 329.358C275.658 325.333 282.113 323.841 289.91 324.882C291.232 325.058 292.13 325.38 292.606 325.847C293.196 326.464 293.456 327.037 293.385 327.566C293.315 328.094 292.222 329.226 290.107 330.962C287.992 332.697 286.022 334.855 284.198 337.436C282.505 340.035 281.377 343.449 280.812 347.678C280.106 352.965 281.308 357.564 284.417 361.477C287.641 365.539 292.358 367.986 298.57 368.815C307.16 369.963 314.078 367.523 319.321 361.498C324.565 355.472 328.193 344.927 330.206 329.86L332.694 311.226Z" fill="#F25939"/>
<path d="M202.25 324.5C206.583 324.5 210.25 323 213.25 320C216.417 316.833 218.083 313.083 218.25 308.75V170C218.083 165.667 216.417 162 213.25 159C210.25 156 206.583 154.5 202.25 154.5H199V152H253.75V154.5H250.5C246.167 154.5 242.417 156 239.25 159C236.25 162 234.667 165.667 234.5 170V308.75C234.5 313.083 236.083 316.833 239.25 320C242.417 323 246.167 324.5 250.5 324.5H253.75V327H199V324.5H202.25Z" fill="#512C17"/>
<path d="M142.88 458.6V473H139.424V458.6H142.88ZM148.496 472.04L149.048 473H142.832V472.04H148.496ZM147.68 465.392V466.352H142.832V465.392H147.68ZM148.76 458.6V459.56H142.832V458.6H148.76ZM150.032 468.584L149.12 473H144.968L145.712 472.04C146.4 472.04 147.008 471.904 147.536 471.632C148.08 471.344 148.544 470.944 148.928 470.432C149.312 469.904 149.608 469.288 149.816 468.584H150.032ZM147.68 466.304V468.416H147.44V468.224C147.44 467.696 147.272 467.256 146.936 466.904C146.616 466.552 146.176 466.368 145.616 466.352V466.304H147.68ZM147.68 463.328V465.44H145.616V465.392C146.176 465.376 146.616 465.192 146.936 464.84C147.272 464.472 147.44 464.024 147.44 463.496V463.328H147.68ZM148.76 459.512V462.056H148.52V461.84C148.52 461.136 148.328 460.584 147.944 460.184C147.576 459.784 147.04 459.576 146.336 459.56V459.512H148.76ZM148.76 458.24V458.816L146.24 458.6C146.704 458.6 147.192 458.56 147.704 458.48C148.216 458.384 148.568 458.304 148.76 458.24ZM139.472 471.488L139.592 473H137.816V472.76C137.816 472.76 137.864 472.76 137.96 472.76C138.056 472.76 138.112 472.76 138.128 472.76C138.48 472.76 138.776 472.64 139.016 472.4C139.272 472.144 139.408 471.84 139.424 471.488H139.472ZM139.472 460.112H139.424C139.408 459.744 139.272 459.44 139.016 459.2C138.776 458.96 138.48 458.84 138.128 458.84C138.112 458.84 138.056 458.84 137.96 458.84C137.864 458.84 137.816 458.84 137.816 458.84V458.6H139.592L139.472 460.112ZM155.827 458.6L165.115 472.976H161.107L151.867 458.6H155.827ZM154.387 471.512C154.179 471.816 154.171 472.104 154.363 472.376C154.571 472.632 154.819 472.76 155.107 472.76C155.107 472.76 155.147 472.76 155.227 472.76C155.323 472.76 155.371 472.76 155.371 472.76V473H150.091V472.76H150.379C150.827 472.76 151.227 472.648 151.579 472.424C151.947 472.184 152.259 471.904 152.515 471.584L154.387 471.512ZM157.027 465.656L158.059 466.496L153.331 472.976L151.507 472.928L157.027 465.656ZM160.171 471.536L164.227 471.608C164.435 471.912 164.723 472.184 165.091 472.424C165.475 472.648 165.891 472.76 166.339 472.76H166.627V473H159.187V472.76C159.187 472.76 159.227 472.76 159.307 472.76C159.403 472.76 159.451 472.76 159.451 472.76C159.739 472.76 159.979 472.632 160.171 472.376C160.363 472.104 160.363 471.824 160.171 471.536ZM157.747 458.576V458.816C157.747 458.816 157.699 458.816 157.603 458.816C157.523 458.816 157.483 458.816 157.483 458.816C157.211 458.816 156.979 458.952 156.787 459.224C156.595 459.496 156.587 459.768 156.763 460.04L152.779 459.968C152.555 459.664 152.251 459.4 151.867 459.176C151.499 458.936 151.091 458.816 150.643 458.816H150.355V458.576H157.747ZM164.635 458.6L159.571 466.016L158.779 464.768L162.787 458.6H164.635ZM166.123 458.576V458.816H165.811C165.379 458.816 164.971 458.928 164.587 459.152C164.219 459.376 163.923 459.648 163.699 459.968L161.851 460.04C162.027 459.768 162.019 459.496 161.827 459.224C161.651 458.952 161.419 458.816 161.131 458.816C161.131 458.816 161.083 458.816 160.987 458.816C160.907 458.816 160.867 458.816 160.867 458.816V458.576H166.123ZM171.913 458.6H174.217C175.513 458.6 176.561 458.776 177.361 459.128C178.161 459.48 178.761 459.96 179.161 460.568C179.561 461.16 179.777 461.832 179.809 462.584C179.841 463.528 179.649 464.352 179.233 465.056C178.833 465.76 178.289 466.296 177.601 466.664C176.913 467.032 176.161 467.2 175.345 467.168C174.529 467.12 173.721 466.832 172.921 466.304V466.088C172.921 466.088 173.001 466.088 173.161 466.088C173.337 466.088 173.553 466.064 173.809 466.016C174.065 465.952 174.329 465.84 174.601 465.68C174.889 465.52 175.161 465.28 175.417 464.96C175.673 464.64 175.873 464.208 176.017 463.664C176.065 463.472 176.097 463.264 176.113 463.04C176.145 462.8 176.153 462.592 176.137 462.416C176.121 461.536 175.857 460.84 175.345 460.328C174.849 459.8 174.153 459.536 173.257 459.536H172.129C172.129 459.536 172.113 459.464 172.081 459.32C172.049 459.16 172.009 459 171.961 458.84C171.929 458.68 171.913 458.6 171.913 458.6ZM172.177 458.6V473H168.721V458.6H172.177ZM168.769 471.488L168.865 473H167.137V472.76C167.153 472.76 167.201 472.76 167.281 472.76C167.361 472.76 167.409 472.76 167.425 472.76C167.777 472.76 168.073 472.64 168.313 472.4C168.569 472.144 168.705 471.84 168.721 471.488H168.769ZM168.769 460.088H168.721C168.705 459.72 168.569 459.424 168.313 459.2C168.073 458.96 167.777 458.84 167.425 458.84C167.393 458.84 167.337 458.84 167.257 458.84C167.193 458.84 167.145 458.84 167.113 458.84V458.6H168.865L168.769 460.088ZM172.129 471.488H172.177C172.193 471.84 172.321 472.144 172.561 472.4C172.801 472.64 173.105 472.76 173.473 472.76C173.505 472.76 173.553 472.76 173.617 472.76C173.697 472.76 173.745 472.76 173.761 472.76V473H172.009L172.129 471.488ZM186.239 458.6V473H182.783V458.6H186.239ZM191.831 472.04L192.407 473H186.191V472.04H191.831ZM193.415 468.584L192.479 473H188.327L189.071 472.04C189.759 472.04 190.367 471.904 190.895 471.632C191.439 471.344 191.903 470.944 192.287 470.432C192.671 469.904 192.967 469.288 193.175 468.584H193.415ZM182.831 471.488L182.951 473H181.175V472.76C181.175 472.76 181.223 472.76 181.319 472.76C181.415 472.76 181.471 472.76 181.487 472.76C181.839 472.76 182.135 472.64 182.375 472.4C182.631 472.144 182.767 471.84 182.783 471.488H182.831ZM186.191 460.112V458.6H187.847V458.84C187.831 458.84 187.775 458.84 187.679 458.84C187.599 458.84 187.559 458.84 187.559 458.84C187.207 458.84 186.903 458.96 186.647 459.2C186.391 459.44 186.255 459.744 186.239 460.112H186.191ZM182.831 460.112H182.783C182.767 459.744 182.631 459.44 182.375 459.2C182.119 458.96 181.815 458.84 181.463 458.84C181.447 458.84 181.391 458.84 181.295 458.84C181.215 458.84 181.175 458.84 181.175 458.84V458.6H182.831V460.112ZM203.101 458.288C204.381 458.288 205.541 458.464 206.581 458.816C207.621 459.152 208.517 459.648 209.269 460.304C210.021 460.96 210.597 461.752 210.997 462.68C211.413 463.608 211.621 464.656 211.621 465.824C211.621 466.976 211.413 468.016 210.997 468.944C210.597 469.856 210.021 470.64 209.269 471.296C208.517 471.952 207.621 472.456 206.581 472.808C205.541 473.144 204.381 473.312 203.101 473.312C201.837 473.312 200.685 473.144 199.645 472.808C198.605 472.456 197.709 471.952 196.957 471.296C196.205 470.64 195.629 469.856 195.229 468.944C194.829 468.016 194.629 466.976 194.629 465.824C194.629 464.656 194.829 463.608 195.229 462.68C195.629 461.752 196.205 460.96 196.957 460.304C197.709 459.648 198.605 459.152 199.645 458.816C200.685 458.464 201.837 458.288 203.101 458.288ZM203.101 472.376C204.077 472.376 204.925 472.112 205.645 471.584C206.381 471.04 206.941 470.28 207.325 469.304C207.725 468.328 207.925 467.168 207.925 465.824C207.925 464.464 207.725 463.296 207.325 462.32C206.941 461.328 206.381 460.568 205.645 460.04C204.925 459.496 204.077 459.224 203.101 459.224C202.141 459.224 201.301 459.496 200.581 460.04C199.861 460.568 199.301 461.328 198.901 462.32C198.501 463.296 198.301 464.464 198.301 465.824C198.301 467.168 198.501 468.328 198.901 469.304C199.301 470.28 199.861 471.04 200.581 471.584C201.301 472.112 202.141 472.376 203.101 472.376ZM217.948 458.6H220.54C221.196 458.6 221.836 458.672 222.46 458.816C223.084 458.944 223.644 459.16 224.14 459.464C224.636 459.752 225.028 460.152 225.316 460.664C225.62 461.16 225.772 461.784 225.772 462.536C225.772 463.096 225.652 463.656 225.412 464.216C225.188 464.76 224.828 465.232 224.332 465.632C223.852 466.032 223.22 466.296 222.436 466.424C222.9 466.568 223.34 466.848 223.756 467.264C224.188 467.68 224.524 468.072 224.764 468.44C224.828 468.568 224.94 468.776 225.1 469.064C225.26 469.336 225.46 469.656 225.7 470.024C225.956 470.376 226.22 470.744 226.492 471.128C226.812 471.56 227.092 471.896 227.332 472.136C227.572 472.36 227.82 472.52 228.076 472.616C228.332 472.712 228.628 472.76 228.964 472.76V473H226.948C226.084 473 225.348 472.936 224.74 472.808C224.148 472.68 223.628 472.448 223.18 472.112C222.748 471.76 222.348 471.288 221.98 470.696C221.836 470.488 221.684 470.24 221.524 469.952C221.364 469.648 221.204 469.344 221.044 469.04C220.884 468.736 220.74 468.44 220.612 468.152C220.5 467.864 220.42 467.624 220.372 467.432C220.164 466.92 219.924 466.552 219.652 466.328C219.396 466.088 219.156 465.968 218.932 465.968V465.752C218.932 465.752 218.988 465.752 219.1 465.752C219.212 465.752 219.356 465.752 219.532 465.752C219.868 465.752 220.196 465.696 220.516 465.584C220.852 465.456 221.156 465.224 221.428 464.888C221.7 464.536 221.9 464.024 222.028 463.352C222.06 463.256 222.084 463.12 222.1 462.944C222.132 462.768 222.14 462.568 222.124 462.344C222.092 461.752 221.98 461.28 221.788 460.928C221.612 460.56 221.388 460.288 221.116 460.112C220.844 459.92 220.564 459.792 220.276 459.728C220.004 459.648 219.764 459.608 219.556 459.608C219.252 459.592 218.972 459.592 218.716 459.608C218.476 459.608 218.292 459.6 218.164 459.584C218.148 459.584 218.124 459.504 218.092 459.344C218.06 459.168 218.028 459 217.996 458.84C217.964 458.68 217.948 458.6 217.948 458.6ZM218.188 458.6V473H214.708V458.6H218.188ZM214.78 471.488L214.876 473H213.148V472.76C213.164 472.76 213.204 472.76 213.268 472.76C213.348 472.76 213.404 472.76 213.436 472.76C213.788 472.76 214.084 472.64 214.324 472.4C214.58 472.144 214.716 471.84 214.732 471.488H214.78ZM214.78 460.088H214.732C214.716 459.72 214.58 459.424 214.324 459.2C214.084 458.96 213.796 458.84 213.46 458.84C213.412 458.84 213.348 458.84 213.268 458.84C213.204 458.84 213.164 458.84 213.148 458.84V458.6H214.876L214.78 460.088ZM218.14 471.488H218.188C218.188 471.888 218.324 472.2 218.596 472.424C218.884 472.648 219.188 472.76 219.508 472.76C219.508 472.76 219.54 472.76 219.604 472.76C219.668 472.76 219.716 472.76 219.748 472.76V473H218.02L218.14 471.488ZM233.913 458.6V473H230.457V458.6H233.913ZM230.529 471.488V473H228.777V472.76C228.777 472.76 228.825 472.76 228.921 472.76C229.017 472.76 229.073 472.76 229.089 472.76C229.457 472.76 229.777 472.64 230.049 472.4C230.321 472.144 230.457 471.84 230.457 471.488H230.529ZM233.865 471.488H233.913C233.929 471.84 234.065 472.144 234.321 472.4C234.593 472.64 234.921 472.76 235.305 472.76C235.305 472.76 235.345 472.76 235.425 472.76C235.521 472.76 235.577 472.76 235.593 472.76V473H233.865V471.488ZM233.865 460.112V458.6H235.593L235.569 458.84C235.569 458.84 235.529 458.84 235.449 458.84C235.369 458.84 235.321 458.84 235.305 458.84C234.921 458.84 234.593 458.96 234.321 459.2C234.065 459.44 233.929 459.744 233.913 460.112H233.865ZM230.529 460.112H230.457C230.457 459.744 230.321 459.44 230.049 459.2C229.777 458.96 229.449 458.84 229.065 458.84C229.065 458.84 229.017 458.84 228.921 458.84C228.825 458.84 228.777 458.84 228.777 458.84V458.6H230.529V460.112ZM238.582 458.264L252.67 470.648L252.91 473.312L238.846 460.928L238.582 458.264ZM238.678 471.536V473H236.902V472.76C236.902 472.76 236.966 472.76 237.094 472.76C237.222 472.76 237.286 472.76 237.286 472.76C237.654 472.76 237.966 472.648 238.222 472.424C238.478 472.184 238.606 471.888 238.606 471.536H238.678ZM241.894 471.536C241.91 471.888 242.046 472.184 242.302 472.424C242.558 472.648 242.862 472.76 243.214 472.76C243.214 472.76 243.278 472.76 243.406 472.76C243.55 472.76 243.622 472.76 243.622 472.76V473H241.846V471.536H241.894ZM238.582 458.264L241.894 461.864V473H238.606V461C238.606 460.184 238.566 459.528 238.486 459.032C238.406 458.52 238.366 458.264 238.366 458.264H238.582ZM252.886 458.6V470.504C252.886 471.064 252.902 471.56 252.934 471.992C252.982 472.408 253.022 472.736 253.054 472.976C253.102 473.2 253.126 473.312 253.126 473.312H252.91L249.598 469.496V458.6H252.886ZM252.814 460.064V458.6H254.614V458.84C254.614 458.84 254.542 458.84 254.398 458.84C254.27 458.84 254.206 458.84 254.206 458.84C253.854 458.84 253.542 458.96 253.27 459.2C253.014 459.424 252.886 459.712 252.886 460.064H252.814ZM249.598 460.064C249.582 459.712 249.446 459.424 249.19 459.2C248.95 458.96 248.646 458.84 248.278 458.84C248.278 458.84 248.206 458.84 248.062 458.84C247.934 458.84 247.87 458.84 247.87 458.84V458.6H249.646V460.064H249.598ZM263.794 458.288C264.53 458.288 265.266 458.336 266.002 458.432C266.754 458.512 267.45 458.64 268.09 458.816C268.746 458.976 269.298 459.168 269.746 459.392V463.208H269.554C269.298 462.184 268.914 461.384 268.402 460.808C267.906 460.232 267.33 459.824 266.674 459.584C266.018 459.344 265.306 459.224 264.538 459.224C263.418 459.224 262.474 459.488 261.706 460.016C260.938 460.544 260.354 461.312 259.954 462.32C259.57 463.312 259.378 464.512 259.378 465.92C259.378 467.248 259.554 468.392 259.906 469.352C260.258 470.312 260.778 471.056 261.466 471.584C262.154 472.112 262.986 472.376 263.962 472.376C264.474 472.376 264.962 472.296 265.426 472.136C265.89 471.96 266.298 471.712 266.65 471.392C267.002 471.056 267.25 470.648 267.394 470.168L267.418 467.288C267.418 466.968 267.322 466.728 267.13 466.568C266.954 466.408 266.698 466.328 266.362 466.328H266.026V466.112H272.194V466.328H271.882C271.178 466.328 270.834 466.648 270.85 467.288V470.48C270.514 470.928 269.994 471.368 269.29 471.8C268.586 472.232 267.754 472.592 266.794 472.88C265.834 473.168 264.786 473.312 263.65 473.312C262.05 473.296 260.658 472.992 259.474 472.4C258.29 471.792 257.37 470.928 256.714 469.808C256.058 468.688 255.73 467.344 255.73 465.776C255.73 464.208 256.058 462.872 256.714 461.768C257.37 460.648 258.298 459.792 259.498 459.2C260.698 458.592 262.13 458.288 263.794 458.288ZM279.405 458.744H283.125L286.365 467.288L285.021 473.264L279.405 458.744ZM290.133 458.264L290.565 460.472L285.789 470.84C285.789 470.84 285.741 470.96 285.645 471.2C285.565 471.44 285.477 471.744 285.381 472.112C285.285 472.48 285.237 472.864 285.237 473.264H285.021L284.373 470.6L289.941 458.264H290.133ZM290.133 458.264L294.837 467.72L293.709 473.264L288.549 462.872L290.133 458.264ZM298.245 458.744L294.309 470.84C294.309 470.84 294.269 470.968 294.189 471.224C294.125 471.48 294.061 471.8 293.997 472.184C293.933 472.552 293.909 472.912 293.925 473.264H293.709L293.061 471.104L296.709 458.744H298.245ZM296.277 460.16C296.405 459.696 296.373 459.36 296.181 459.152C296.005 458.944 295.781 458.84 295.509 458.84H295.317V458.6H299.829V458.84C299.829 458.84 299.797 458.84 299.733 458.84C299.685 458.84 299.661 458.84 299.661 458.84C299.293 458.84 298.925 458.952 298.557 459.176C298.189 459.384 297.933 459.712 297.789 460.16H296.277ZM283.677 460.16H279.957C279.781 459.712 279.525 459.384 279.189 459.176C278.853 458.952 278.485 458.84 278.085 458.84C278.085 458.84 278.053 458.84 277.989 458.84C277.925 458.84 277.893 458.84 277.893 458.84V458.6H284.637V458.84H284.445C284.189 458.84 283.957 458.944 283.749 459.152C283.541 459.36 283.517 459.696 283.677 460.16ZM308.265 458.288C309.545 458.288 310.705 458.464 311.745 458.816C312.785 459.152 313.681 459.648 314.433 460.304C315.185 460.96 315.761 461.752 316.161 462.68C316.577 463.608 316.785 464.656 316.785 465.824C316.785 466.976 316.577 468.016 316.161 468.944C315.761 469.856 315.185 470.64 314.433 471.296C313.681 471.952 312.785 472.456 311.745 472.808C310.705 473.144 309.545 473.312 308.265 473.312C307.001 473.312 305.849 473.144 304.809 472.808C303.769 472.456 302.873 471.952 302.121 471.296C301.369 470.64 300.793 469.856 300.393 468.944C299.993 468.016 299.793 466.976 299.793 465.824C299.793 464.656 299.993 463.608 300.393 462.68C300.793 461.752 301.369 460.96 302.121 460.304C302.873 459.648 303.769 459.152 304.809 458.816C305.849 458.464 307.001 458.288 308.265 458.288ZM308.265 472.376C309.241 472.376 310.089 472.112 310.809 471.584C311.545 471.04 312.105 470.28 312.489 469.304C312.889 468.328 313.089 467.168 313.089 465.824C313.089 464.464 312.889 463.296 312.489 462.32C312.105 461.328 311.545 460.568 310.809 460.04C310.089 459.496 309.241 459.224 308.265 459.224C307.305 459.224 306.465 459.496 305.745 460.04C305.025 460.568 304.465 461.328 304.065 462.32C303.665 463.296 303.465 464.464 303.465 465.824C303.465 467.168 303.665 468.328 304.065 469.304C304.465 470.28 305.025 471.04 305.745 471.584C306.465 472.112 307.305 472.376 308.265 472.376ZM323.112 458.6H325.704C326.36 458.6 327 458.672 327.624 458.816C328.248 458.944 328.808 459.16 329.304 459.464C329.8 459.752 330.192 460.152 330.48 460.664C330.784 461.16 330.936 461.784 330.936 462.536C330.936 463.096 330.816 463.656 330.576 464.216C330.352 464.76 329.992 465.232 329.496 465.632C329.016 466.032 328.384 466.296 327.6 466.424C328.064 466.568 328.504 466.848 328.92 467.264C329.352 467.68 329.688 468.072 329.928 468.44C329.992 468.568 330.104 468.776 330.264 469.064C330.424 469.336 330.624 469.656 330.864 470.024C331.12 470.376 331.384 470.744 331.656 471.128C331.976 471.56 332.256 471.896 332.496 472.136C332.736 472.36 332.984 472.52 333.24 472.616C333.496 472.712 333.792 472.76 334.128 472.76V473H332.112C331.248 473 330.512 472.936 329.904 472.808C329.312 472.68 328.792 472.448 328.344 472.112C327.912 471.76 327.512 471.288 327.144 470.696C327 470.488 326.848 470.24 326.688 469.952C326.528 469.648 326.368 469.344 326.208 469.04C326.048 468.736 325.904 468.44 325.776 468.152C325.664 467.864 325.584 467.624 325.536 467.432C325.328 466.92 325.088 466.552 324.816 466.328C324.56 466.088 324.32 465.968 324.096 465.968V465.752C324.096 465.752 324.152 465.752 324.264 465.752C324.376 465.752 324.52 465.752 324.696 465.752C325.032 465.752 325.36 465.696 325.68 465.584C326.016 465.456 326.32 465.224 326.592 464.888C326.864 464.536 327.064 464.024 327.192 463.352C327.224 463.256 327.248 463.12 327.264 462.944C327.296 462.768 327.304 462.568 327.288 462.344C327.256 461.752 327.144 461.28 326.952 460.928C326.776 460.56 326.552 460.288 326.28 460.112C326.008 459.92 325.728 459.792 325.44 459.728C325.168 459.648 324.928 459.608 324.72 459.608C324.416 459.592 324.136 459.592 323.88 459.608C323.64 459.608 323.456 459.6 323.328 459.584C323.312 459.584 323.288 459.504 323.256 459.344C323.224 459.168 323.192 459 323.16 458.84C323.128 458.68 323.112 458.6 323.112 458.6ZM323.352 458.6V473H319.872V458.6H323.352ZM319.944 471.488L320.04 473H318.312V472.76C318.328 472.76 318.368 472.76 318.432 472.76C318.512 472.76 318.568 472.76 318.6 472.76C318.952 472.76 319.248 472.64 319.488 472.4C319.744 472.144 319.88 471.84 319.896 471.488H319.944ZM319.944 460.088H319.896C319.88 459.72 319.744 459.424 319.488 459.2C319.248 458.96 318.96 458.84 318.624 458.84C318.576 458.84 318.512 458.84 318.432 458.84C318.368 458.84 318.328 458.84 318.312 458.84V458.6H320.04L319.944 460.088ZM323.304 471.488H323.352C323.352 471.888 323.488 472.2 323.76 472.424C324.048 472.648 324.352 472.76 324.672 472.76C324.672 472.76 324.704 472.76 324.768 472.76C324.832 472.76 324.88 472.76 324.912 472.76V473H323.184L323.304 471.488ZM339.005 458.6V473H335.549V458.6H339.005ZM344.597 472.04L345.173 473H338.957V472.04H344.597ZM346.181 468.584L345.245 473H341.093L341.837 472.04C342.525 472.04 343.133 471.904 343.661 471.632C344.205 471.344 344.669 470.944 345.053 470.432C345.437 469.904 345.733 469.288 345.941 468.584H346.181ZM335.597 471.488L335.717 473H333.941V472.76C333.941 472.76 333.989 472.76 334.085 472.76C334.181 472.76 334.237 472.76 334.253 472.76C334.605 472.76 334.901 472.64 335.141 472.4C335.397 472.144 335.533 471.84 335.549 471.488H335.597ZM338.957 460.112V458.6H340.613V458.84C340.597 458.84 340.541 458.84 340.445 458.84C340.365 458.84 340.325 458.84 340.325 458.84C339.973 458.84 339.669 458.96 339.413 459.2C339.157 459.44 339.021 459.744 339.005 460.112H338.957ZM335.597 460.112H335.549C335.533 459.744 335.397 459.44 335.141 459.2C334.885 458.96 334.581 458.84 334.229 458.84C334.213 458.84 334.157 458.84 334.061 458.84C333.981 458.84 333.941 458.84 333.941 458.84V458.6H335.597V460.112ZM354.967 458.6C356.679 458.6 358.151 458.888 359.383 459.464C360.615 460.024 361.559 460.848 362.215 461.936C362.871 463.008 363.199 464.296 363.199 465.8C363.199 467.304 362.871 468.592 362.215 469.664C361.559 470.736 360.615 471.56 359.383 472.136C358.151 472.712 356.679 473 354.967 473H349.639L349.59 472.04C350.807 472.04 351.783 472.04 352.519 472.04C353.271 472.04 353.815 472.04 354.151 472.04C354.503 472.04 354.679 472.04 354.679 472.04C356.183 472.04 357.367 471.488 358.231 470.384C359.095 469.28 359.527 467.752 359.527 465.8C359.527 463.848 359.095 462.32 358.231 461.216C357.367 460.096 356.183 459.536 354.679 459.536C354.679 459.536 354.503 459.536 354.151 459.536C353.799 459.536 353.231 459.536 352.447 459.536C351.663 459.536 350.631 459.536 349.351 459.536V458.6H354.967ZM351.967 458.6V473H348.511V458.6H351.967ZM348.583 471.464V473H346.854V472.76C346.854 472.76 346.903 472.76 346.999 472.76C347.095 472.76 347.151 472.76 347.167 472.76C347.535 472.76 347.847 472.632 348.103 472.376C348.375 472.12 348.511 471.816 348.511 471.464H348.583ZM348.559 460.112H348.511C348.495 459.744 348.351 459.44 348.079 459.2C347.823 458.96 347.511 458.84 347.143 458.84C347.143 458.84 347.095 458.84 346.999 458.84C346.903 458.84 346.854 458.84 346.854 458.84V458.6H348.559V460.112Z" fill="#512C17"/>
<defs>
<filter id="filter0_i_43_1275" x="370.539" y="274.283" width="70.0673" height="76.3251" filterUnits="userSpaceOnUse" color-interpolation-filters="sRGB">
<feFlood flood-opacity="0" result="BackgroundImageFix"/>
<feBlend mode="normal" in="SourceGraphic" in2="BackgroundImageFix" result="shape"/>
<feColorMatrix in="SourceAlpha" type="matrix" values="0 0 0 0 0 0 0 0 0 0 0 0 0 0 0 0 0 0 127 0" result="hardAlpha"/>
<feOffset dy="4"/>
<feGaussianBlur stdDeviation="2"/>
<feComposite in2="hardAlpha" operator="arithmetic" k2="-1" k3="1"/>
<feColorMatrix type="matrix" values="0 0 0 0 0 0 0 0 0 0 0 0 0 0 0 0 0 0 0.25 0"/>
<feBlend mode="normal" in2="shape" result="effect1_innerShadow_43_1275"/>
</filter>
<filter id="filter1_d_43_1275" x="66.052" y="70.0529" width="349.494" height="348.793" filterUnits="userSpaceOnUse" color-interpolation-filters="sRGB">
<feFlood flood-opacity="0" result="BackgroundImageFix"/>
<feColorMatrix in="SourceAlpha" type="matrix" values="0 0 0 0 0 0 0 0 0 0 0 0 0 0 0 0 0 0 127 0" result="hardAlpha"/>
<feOffset dy="4"/>
<feGaussianBlur stdDeviation="2"/>
<feComposite in2="hardAlpha" operator="out"/>
<feColorMatrix type="matrix" values="0 0 0 0 0 0 0 0 0 0 0 0 0 0 0 0 0 0 0.25 0"/>
<feBlend mode="normal" in2="BackgroundImageFix" result="effect1_dropShadow_43_1275"/>
<feBlend mode="normal" in="SourceGraphic" in2="effect1_dropShadow_43_1275" result="shape"/>
</filter>
<filter id="filter2_d_43_1275" x="75.052" y="77.0529" width="349.494" height="348.793" filterUnits="userSpaceOnUse" color-interpolation-filters="sRGB">
<feFlood flood-opacity="0" result="BackgroundImageFix"/>
<feColorMatrix in="SourceAlpha" type="matrix" values="0 0 0 0 0 0 0 0 0 0 0 0 0 0 0 0 0 0 127 0" result="hardAlpha"/>
<feOffset dy="4"/>
<feGaussianBlur stdDeviation="2"/>
<feComposite in2="hardAlpha" operator="out"/>
<feColorMatrix type="matrix" values="0 0 0 0 0 0 0 0 0 0 0 0 0 0 0 0 0 0 0.25 0"/>
<feBlend mode="normal" in2="BackgroundImageFix" result="effect1_dropShadow_43_1275"/>
<feBlend mode="normal" in="SourceGraphic" in2="effect1_dropShadow_43_1275" result="shape"/>
</filter>
<filter id="filter3_d_43_1275" x="70.052" y="70.0529" width="349.494" height="348.793" filterUnits="userSpaceOnUse" color-interpolation-filters="sRGB">
<feFlood flood-opacity="0" result="BackgroundImageFix"/>
<feColorMatrix in="SourceAlpha" type="matrix" values="0 0 0 0 0 0 0 0 0 0 0 0 0 0 0 0 0 0 127 0" result="hardAlpha"/>
<feOffset dy="4"/>
<feGaussianBlur stdDeviation="2"/>
<feComposite in2="hardAlpha" operator="out"/>
<feColorMatrix type="matrix" values="0 0 0 0 0 0 0 0 0 0 0 0 0 0 0 0 0 0 0.25 0"/>
<feBlend mode="normal" in2="BackgroundImageFix" result="effect1_dropShadow_43_1275"/>
<feBlend mode="normal" in="SourceGraphic" in2="effect1_dropShadow_43_1275" result="shape"/>
</filter>
<filter id="filter4_d_43_1275" x="75.052" y="83.0529" width="349.494" height="348.793" filterUnits="userSpaceOnUse" color-interpolation-filters="sRGB">
<feFlood flood-opacity="0" result="BackgroundImageFix"/>
<feColorMatrix in="SourceAlpha" type="matrix" values="0 0 0 0 0 0 0 0 0 0 0 0 0 0 0 0 0 0 127 0" result="hardAlpha"/>
<feOffset dy="4"/>
<feGaussianBlur stdDeviation="2"/>
<feComposite in2="hardAlpha" operator="out"/>
<feColorMatrix type="matrix" values="0 0 0 0 0 0 0 0 0 0 0 0 0 0 0 0 0 0 0.25 0"/>
<feBlend mode="normal" in2="BackgroundImageFix" result="effect1_dropShadow_43_1275"/>
<feBlend mode="normal" in="SourceGraphic" in2="effect1_dropShadow_43_1275" result="shape"/>
</filter>
<filter id="filter5_d_43_1275" x="74.0505" y="87.0514" width="339.719" height="338.943" filterUnits="userSpaceOnUse" color-interpolation-filters="sRGB">
<feFlood flood-opacity="0" result="BackgroundImageFix"/>
<feColorMatrix in="SourceAlpha" type="matrix" values="0 0 0 0 0 0 0 0 0 0 0 0 0 0 0 0 0 0 127 0" result="hardAlpha"/>
<feOffset dy="4"/>
<feGaussianBlur stdDeviation="2"/>
<feComposite in2="hardAlpha" operator="out"/>
<feColorMatrix type="matrix" values="0 0 0 0 0 0 0 0 0 0 0 0 0 0 0 0 0 0 0.25 0"/>
<feBlend mode="normal" in2="BackgroundImageFix" result="effect1_dropShadow_43_1275"/>
<feBlend mode="normal" in="SourceGraphic" in2="effect1_dropShadow_43_1275" result="shape"/>
</filter>
<filter id="filter6_d_43_1275" x="70.2637" y="84.8389" width="346.548" height="349.221" filterUnits="userSpaceOnUse" color-interpolation-filters="sRGB">
<feFlood flood-opacity="0" result="BackgroundImageFix"/>
<feColorMatrix in="SourceAlpha" type="matrix" values="0 0 0 0 0 0 0 0 0 0 0 0 0 0 0 0 0 0 127 0" result="hardAlpha"/>
<feOffset dy="4"/>
<feGaussianBlur stdDeviation="2"/>
<feComposite in2="hardAlpha" operator="out"/>
<feColorMatrix type="matrix" values="0 0 0 0 0 0 0 0 0 0 0 0 0 0 0 0 0 0 0.25 0"/>
<feBlend mode="normal" in2="BackgroundImageFix" result="effect1_dropShadow_43_1275"/>
<feBlend mode="normal" in="SourceGraphic" in2="effect1_dropShadow_43_1275" result="shape"/>
</filter>
<filter id="filter7_d_43_1275" x="75.0033" y="77.3067" width="350.716" height="349.629" filterUnits="userSpaceOnUse" color-interpolation-filters="sRGB">
<feFlood flood-opacity="0" result="BackgroundImageFix"/>
<feColorMatrix in="SourceAlpha" type="matrix" values="0 0 0 0 0 0 0 0 0 0 0 0 0 0 0 0 0 0 127 0" result="hardAlpha"/>
<feOffset dy="4"/>
<feGaussianBlur stdDeviation="2"/>
<feComposite in2="hardAlpha" operator="out"/>
<feColorMatrix type="matrix" values="0 0 0 0 0 0 0 0 0 0 0 0 0 0 0 0 0 0 0.25 0"/>
<feBlend mode="normal" in2="BackgroundImageFix" result="effect1_dropShadow_43_1275"/>
<feBlend mode="normal" in="SourceGraphic" in2="effect1_dropShadow_43_1275" result="shape"/>
</filter>
<filter id="filter8_d_43_1275" x="76.4342" y="73.7723" width="348.123" height="349.329" filterUnits="userSpaceOnUse" color-interpolation-filters="sRGB">
<feFlood flood-opacity="0" result="BackgroundImageFix"/>
<feColorMatrix in="SourceAlpha" type="matrix" values="0 0 0 0 0 0 0 0 0 0 0 0 0 0 0 0 0 0 127 0" result="hardAlpha"/>
<feOffset dy="4"/>
<feGaussianBlur stdDeviation="2"/>
<feComposite in2="hardAlpha" operator="out"/>
<feColorMatrix type="matrix" values="0 0 0 0 0 0 0 0 0 0 0 0 0 0 0 0 0 0 0.25 0"/>
<feBlend mode="normal" in2="BackgroundImageFix" result="effect1_dropShadow_43_1275"/>
<feBlend mode="normal" in="SourceGraphic" in2="effect1_dropShadow_43_1275" result="shape"/>
</filter>
<filter id="filter9_d_43_1275" x="183" y="121" width="25" height="31.0001" filterUnits="userSpaceOnUse" color-interpolation-filters="sRGB">
<feFlood flood-opacity="0" result="BackgroundImageFix"/>
<feColorMatrix in="SourceAlpha" type="matrix" values="0 0 0 0 0 0 0 0 0 0 0 0 0 0 0 0 0 0 127 0" result="hardAlpha"/>
<feOffset dy="4"/>
<feGaussianBlur stdDeviation="2"/>
<feComposite in2="hardAlpha" operator="out"/>
<feColorMatrix type="matrix" values="0 0 0 0 0 0 0 0 0 0 0 0 0 0 0 0 0 0 0.25 0"/>
<feBlend mode="normal" in2="BackgroundImageFix" result="effect1_dropShadow_43_1275"/>
<feBlend mode="normal" in="SourceGraphic" in2="effect1_dropShadow_43_1275" result="shape"/>
</filter>
<filter id="filter10_d_43_1275" x="165" y="170" width="30.0001" height="27.9999" filterUnits="userSpaceOnUse" color-interpolation-filters="sRGB">
<feFlood flood-opacity="0" result="BackgroundImageFix"/>
<feColorMatrix in="SourceAlpha" type="matrix" values="0 0 0 0 0 0 0 0 0 0 0 0 0 0 0 0 0 0 127 0" result="hardAlpha"/>
<feOffset dy="4"/>
<feGaussianBlur stdDeviation="2"/>
<feComposite in2="hardAlpha" operator="out"/>
<feColorMatrix type="matrix" values="0 0 0 0 0 0 0 0 0 0 0 0 0 0 0 0 0 0 0.25 0"/>
<feBlend mode="normal" in2="BackgroundImageFix" result="effect1_dropShadow_43_1275"/>
<feBlend mode="normal" in="SourceGraphic" in2="effect1_dropShadow_43_1275" result="shape"/>
</filter>
<filter id="filter11_d_43_1275" x="148" y="146" width="29" height="35.9999" filterUnits="userSpaceOnUse" color-interpolation-filters="sRGB">
<feFlood flood-opacity="0" result="BackgroundImageFix"/>
<feColorMatrix in="SourceAlpha" type="matrix" values="0 0 0 0 0 0 0 0 0 0 0 0 0 0 0 0 0 0 127 0" result="hardAlpha"/>
<feOffset dy="4"/>
<feGaussianBlur stdDeviation="2"/>
<feComposite in2="hardAlpha" operator="out"/>
<feColorMatrix type="matrix" values="0 0 0 0 0 0 0 0 0 0 0 0 0 0 0 0 0 0 0.25 0"/>
<feBlend mode="normal" in2="BackgroundImageFix" result="effect1_dropShadow_43_1275"/>
<feBlend mode="normal" in="SourceGraphic" in2="effect1_dropShadow_43_1275" result="shape"/>
</filter>
<filter id="filter12_d_43_1275" x="88.8727" y="123.505" width="148.281" height="286.182" filterUnits="userSpaceOnUse" color-interpolation-filters="sRGB">
<feFlood flood-opacity="0" result="BackgroundImageFix"/>
<feColorMatrix in="SourceAlpha" type="matrix" values="0 0 0 0 0 0 0 0 0 0 0 0 0 0 0 0 0 0 127 0" result="hardAlpha"/>
<feOffset dy="4"/>
<feGaussianBlur stdDeviation="2"/>
<feComposite in2="hardAlpha" operator="out"/>
<feColorMatrix type="matrix" values="0 0 0 0 0 0 0 0 0 0 0 0 0 0 0 0 0 0 0.25 0"/>
<feBlend mode="normal" in2="BackgroundImageFix" result="effect1_dropShadow_43_1275"/>
<feBlend mode="normal" in="SourceGraphic" in2="effect1_dropShadow_43_1275" result="shape"/>
</filter>
<linearGradient id="paint0_linear_43_1275" x1="418.656" y1="276.535" x2="392.489" y2="344.355" gradientUnits="userSpaceOnUse">
<stop stop-color="#0CC0DF"/>
<stop offset="1" stop-color="#076879"/>
</linearGradient>
</defs>
</svg>
